<?xml version="1.0" encoding="UTF-8" standalone="no"?>
<!-- Generator: Adobe Illustrator 18.1.1, SVG Export Plug-In . SVG Version: 6.00 Build 0)  -->

<svg
   xmlns:dc="http://purl.org/dc/elements/1.1/"
   xmlns:cc="http://creativecommons.org/ns#"
   xmlns:rdf="http://www.w3.org/1999/02/22-rdf-syntax-ns#"
   xmlns:svg="http://www.w3.org/2000/svg"
   xmlns="http://www.w3.org/2000/svg"
   xmlns:sodipodi="http://sodipodi.sourceforge.net/DTD/sodipodi-0.dtd"
   xmlns:inkscape="http://www.inkscape.org/namespaces/inkscape"
   version="1.1"
   id="Capa_1"
   x="0px"
   y="0px"
   viewBox="0 0 355.00002 355.00002"
   xml:space="preserve"
   inkscape:version="0.91 r13725"
   sodipodi:docname="unsolved.svg"
   width="355"
   height="355"><metadata
     id="metadata4430"><rdf:RDF><cc:Work
         rdf:about=""><dc:format>image/svg+xml</dc:format><dc:type
           rdf:resource="http://purl.org/dc/dcmitype/StillImage" /><dc:title></dc:title></cc:Work></rdf:RDF></metadata><defs
     id="defs4428" /><sodipodi:namedview
     pagecolor="#ffffff"
     bordercolor="#666666"
     borderopacity="1"
     objecttolerance="10"
     gridtolerance="10"
     guidetolerance="10"
     inkscape:pageopacity="0"
     inkscape:pageshadow="2"
     inkscape:window-width="1440"
     inkscape:window-height="857"
     id="namedview4426"
     showgrid="false"
     fit-margin-top="0"
     fit-margin-left="0"
     fit-margin-right="0"
     fit-margin-bottom="0"
     inkscape:zoom="0.94069385"
     inkscape:cx="202.81985"
     inkscape:cy="168.00768"
     inkscape:window-x="-2"
     inkscape:window-y="180"
     inkscape:window-maximized="0"
     inkscape:current-layer="layer2"
     inkscape:snap-object-midpoints="true"
     inkscape:snap-center="true" /><g
     id="g4396"
     transform="translate(0.30902789,22.760198)" /><g
     id="g4398"
     transform="translate(0.30902789,22.760198)" /><g
     id="g4400"
     transform="translate(0.30902789,22.760198)" /><g
     id="g4402"
     transform="translate(0.30902789,22.760198)" /><g
     id="g4404"
     transform="translate(0.30902789,22.760198)" /><g
     id="g4406"
     transform="translate(0.30902789,22.760198)" /><g
     id="g4408"
     transform="translate(0.30902789,22.760198)" /><g
     id="g4410"
     transform="translate(0.30902789,22.760198)" /><g
     id="g4412"
     transform="translate(0.30902789,22.760198)" /><g
     id="g4414"
     transform="translate(0.30902789,22.760198)" /><g
     id="g4416"
     transform="translate(0.30902789,22.760198)" /><g
     id="g4418"
     transform="translate(0.30902789,22.760198)" /><g
     id="g4420"
     transform="translate(0.30902789,22.760198)" /><g
     id="g4422"
     transform="translate(0.30902789,22.760198)" /><g
     id="g4424"
     transform="translate(0.30902789,22.760198)" /><g
     inkscape:groupmode="layer"
     id="layer2"
     inkscape:label="questionmark"><g
       style="font-style:normal;font-weight:normal;font-size:40px;line-height:125%;font-family:sans-serif;letter-spacing:0px;word-spacing:0px;fill:#000000;fill-opacity:1;stroke:none;stroke-width:1px;stroke-linecap:butt;stroke-linejoin:miter;stroke-opacity:1"
       id="text4206"><path
         d="m 149.93662,256.11184 c 0.14649,-19.48033 2.19705,-39.46809 6.15169,-47.96327 3.95466,-8.49517 12.816,-19.55355 26.58403,-33.17514 10.39929,-13.18218 18.3086,-25.04614 23.72794,-35.59187 5.56581,-10.69221 8.34872,-23.21528 8.34872,-37.56921 0,-16.111549 -3.36878,-28.634619 -10.10634,-37.569208 -6.5911,-9.081057 -16.03833,-13.621585 -28.34168,-13.621585 -10.25281,0 -19.04093,4.174359 -26.36436,12.523078 -7.32343,8.202234 -10.98514,19.626787 -10.98514,34.27366 -16.25974,-1.369582 -30.5681,1.814049 -42.576314,10.364695 -2.931706,-21.063029 9.450424,-59.483656 21.265134,-71.00272 15.23273,-14.353923 34.78629,-21.530885 58.66068,-21.530885 25.92495,0 46.21085,7.689607 60.85772,23.06882 14.79333,15.379196 22.19,36.324211 22.19,62.835045 0,19.04092 -4.46729,36.32422 -13.40188,51.8499 -8.78812,15.52566 -20.50561,30.83163 -35.15247,45.91791 -7.17698,7.4699 -11.71751,14.64686 -13.62158,21.53089 -1.75763,6.73756 -2.63644,12.62419 -2.63644,25.65989 -16.59146,-1.84134 -30.81052,3.43453 -44.59971,10 z m 45.47852,79.6388 c -15.23274,-1.53187 -30.46548,2.50228 -45.69822,8 5.27499,-15.15247 6.05302,-29.1807 0,-41.50117 15.23274,2.76169 30.46548,-1.43634 45.69822,-10 -5.60349,15.90126 -5.73534,30.43462 0,43.50117 z"
         style="font-style:normal;font-variant:normal;font-weight:normal;font-stretch:condensed;font-size:180.00001526px;font-family:'Roboto Condensed';-inkscape-font-specification:'Roboto Condensed,  Condensed'"
         id="path4211"
         inkscape:connector-curvature="0"
         sodipodi:nodetypes="csccscsccccscscccccccccc" /></g></g></svg>